G04 MADE WITH FRITZING*
G04 WWW.FRITZING.ORG*
G04 DOUBLE SIDED*
G04 HOLES PLATED*
G04 CONTOUR ON CENTER OF CONTOUR VECTOR*
%ASAXBY*%
%FSLAX23Y23*%
%MOIN*%
%OFA0B0*%
%SFA1.0B1.0*%
%ADD10C,0.076889*%
%ADD11C,0.096000*%
%ADD12C,0.057244*%
%ADD13C,0.088000*%
%ADD14C,0.087701*%
%ADD15C,0.096614*%
%ADD16R,0.298374X0.175061*%
%ADD17R,0.041496X0.045433*%
%ADD18R,0.065118X0.069055*%
%ADD19R,0.001000X0.001000*%
%LNMASK1*%
G90*
G70*
G54D10*
X908Y214D03*
X908Y314D03*
X908Y414D03*
X908Y514D03*
X908Y614D03*
X908Y714D03*
X908Y814D03*
X908Y914D03*
X908Y1014D03*
X908Y1114D03*
X908Y1214D03*
X908Y1314D03*
X908Y1414D03*
X908Y1514D03*
X793Y1414D03*
X793Y1114D03*
X793Y1214D03*
X308Y214D03*
X308Y314D03*
X308Y414D03*
X308Y514D03*
X308Y614D03*
X308Y714D03*
X308Y814D03*
X308Y914D03*
X308Y1014D03*
X308Y1114D03*
X308Y1214D03*
X308Y1314D03*
X308Y1414D03*
X308Y1514D03*
X793Y1014D03*
X508Y214D03*
X408Y214D03*
X608Y214D03*
X808Y214D03*
X708Y214D03*
G54D11*
X2361Y1436D03*
X2459Y1239D03*
X2558Y1239D03*
X2262Y1239D03*
X2164Y1239D03*
G54D12*
X2558Y1436D03*
X2558Y1534D03*
X2164Y1534D03*
X2164Y1436D03*
X2361Y1239D03*
G54D11*
X2361Y1436D03*
X2459Y1239D03*
X2558Y1239D03*
X2262Y1239D03*
X2164Y1239D03*
G54D12*
X2558Y1436D03*
X2558Y1534D03*
X2164Y1534D03*
X2164Y1436D03*
X2361Y1239D03*
G54D13*
X2683Y764D03*
X2683Y864D03*
X2683Y964D03*
X2208Y514D03*
X2108Y514D03*
X2008Y514D03*
X2208Y389D03*
X2108Y389D03*
X2008Y389D03*
X1383Y389D03*
X1283Y389D03*
X1183Y389D03*
X1383Y514D03*
X1283Y514D03*
X1183Y514D03*
X1383Y139D03*
X1283Y139D03*
X1183Y139D03*
X1383Y264D03*
X1283Y264D03*
X1183Y264D03*
X2008Y139D03*
X2108Y139D03*
X2208Y139D03*
X183Y1514D03*
X183Y1414D03*
X183Y1314D03*
X183Y1214D03*
X183Y1114D03*
X183Y1014D03*
X183Y914D03*
X183Y814D03*
X2033Y1489D03*
X2033Y1389D03*
X2033Y1289D03*
X2033Y1189D03*
X2033Y1089D03*
X2033Y989D03*
X2033Y889D03*
X2033Y789D03*
X1433Y639D03*
X1333Y639D03*
X1233Y639D03*
G54D14*
X1208Y1489D03*
X1208Y1389D03*
X1208Y1289D03*
X1208Y1189D03*
X1208Y1089D03*
X1208Y989D03*
X1208Y889D03*
X1208Y789D03*
X1907Y1489D03*
X1907Y1389D03*
X1907Y1289D03*
X1907Y1189D03*
X1907Y1089D03*
X1907Y989D03*
X1907Y889D03*
X1907Y789D03*
G54D15*
X3158Y64D03*
X3158Y1514D03*
X61Y1539D03*
X61Y64D03*
G54D16*
X3033Y964D03*
X3033Y764D03*
G54D17*
X2752Y139D03*
X2677Y139D03*
X2714Y60D03*
G54D18*
X2577Y264D03*
X2658Y264D03*
X2777Y264D03*
X2858Y264D03*
G54D19*
D02*
G04 End of Mask1*
M02*