; NON-PLATED HOLES START AT T1
; THROUGH (PLATED) HOLES START AT T100
M48
INCH
T1C0.047244
T2C0.086614
T100C0.036076
T101C0.039111
T102C0.051181
T103C0.038000
%
T1
X021640Y015340
X023608Y012388
X025577Y015340
X025577Y014356
X021640Y014356
T2
X031577Y000638
X031577Y015138
X000614Y015388
X000614Y000638
T100
X019070Y014888
X019070Y007891
X012077Y010889
X019070Y009890
X012077Y013888
X012077Y007891
X012077Y009890
X019070Y008890
X019070Y010889
X012077Y012889
X019070Y012889
X012077Y008890
X012077Y014888
X012077Y011889
X019070Y011889
X019070Y013888
T101
X009077Y008138
X003077Y007138
X009077Y006138
X003077Y013138
X009077Y003138
X009077Y013138
X009077Y005138
X003077Y005138
X007077Y002138
X009077Y009138
X003077Y010138
X005077Y002138
X003077Y009138
X009077Y011138
X009077Y012138
X009077Y002138
X003077Y004138
X003077Y008138
X003077Y003138
X007934Y011137
X009077Y014138
X003077Y012138
X006077Y002138
X003077Y011138
X009077Y007138
X003077Y002138
X003077Y015138
X009077Y010138
X008077Y002138
X004077Y002138
X007934Y012138
X009077Y015138
X003077Y014138
X009077Y004138
X007934Y010137
X007934Y014138
X003077Y006138
T102
X022624Y012388
X021640Y012388
X025577Y012388
X023608Y014356
X024593Y012388
T103
X013827Y001388
X021077Y005138
X021077Y003888
X001827Y015138
X011827Y001388
X026827Y009638
X020327Y009888
X014327Y006388
X012827Y005138
X011827Y003888
X012827Y003888
X020327Y013888
X020327Y012888
X020327Y014888
X001827Y008138
X001827Y014138
X020327Y010888
X011827Y002638
X020327Y008888
X012827Y001388
X020327Y011888
X020077Y001388
X012827Y002638
X013827Y002638
X022077Y003888
X013327Y006388
X020327Y007888
X021077Y001388
X001827Y010138
X013827Y003888
X001827Y011138
X020077Y003888
X022077Y001388
X013827Y005138
X012327Y006388
X001827Y009138
X011827Y005138
X026827Y007638
X001827Y012138
X026827Y008638
X022077Y005138
X001827Y013138
X020077Y005138
T00
M30
